<svg width="820" height="470" viewBox="0 0 820 470" fill="none" xmlns="http://www.w3.org/2000/svg">
<path d="M528.1 110.1C533 112.9 538.1 115.4 542.8 118.4C581.5 142.9 571.4 185.8 546.9 205C534.4 214.8 520.2 220.1 504.5 220.4C478.2 220.8 451.9 220.6 425.6 220.5C420.1 220.5 418.2 218.5 418.2 212.9C418.2 145.7 418.2 78.4 418.2 11.2C418.2 5.40001 420.1 3.5 426.1 3.5C450.6 3.5 475 3.00001 499.5 3.70001C522.2 4.30001 541.2 13.3 554.3 32.5C567.7 52.2 565.8 75 549.8 92.6C546.7 96 543.2 99.2 539.6 102.1C535.9 105 531.9 107.5 528.1 110.1ZM466.8 132.7C466.8 146.8 466.8 161.2 466.8 176.1C475.8 176.1 484.6 176.2 493.4 176.1C505.9 175.9 515.4 167.7 516.4 156.3C517.5 145.2 509.6 134.5 497.2 132.9C487.4 131.7 477.2 132.7 466.8 132.7ZM466.8 91.3C475.8 91.3 484.6 91.9 493.3 91.1C504 90.1 511.9 80.6 512.2 69.9C512.5 59.9 505.7 50.4 495.6 49.2C486.2 48.1 476.5 49 466.7 49C466.8 63.2 466.8 77.1 466.8 91.3Z" fill="white"/>
<path d="M368.7 77.1C368.7 96.4 368.7 115.7 368.7 135C368.7 180.5 336.8 216.8 291.5 222.7C245.3 228.8 202.8 198.9 193.3 153.6C192.2 148.3 191.7 142.7 191.7 137.3C191.6 95.7 191.6 54.1 191.6 12.5C191.6 5.3 193.3 3.60001 200.3 3.60001C211.3 3.60001 222.3 3.60001 233.3 3.60001C240.1 3.60001 241.8 5.30001 241.8 12.2C241.8 53 241.8 93.7 241.8 134.5C241.8 153.1 253 168.1 269.8 172.5C295 179.1 318.4 161.1 318.5 134.9C318.6 94.8 318.5 54.7 318.5 14.6C318.5 4.40001 319.3 3.70001 329.7 3.70001C340 3.70001 350.3 3.70001 360.7 3.70001C366.8 3.70001 368.7 5.69999 368.7 11.8C368.7 33.5 368.7 55.3 368.7 77.1Z" fill="white"/>
<path d="M78.8 223.6C62.3 223.3 42.3 219.2 24.4 207.6C20.5 205.1 16.8 202.1 13.7 198.7C12.3 197.2 11.7 193.5 12.6 191.7C17.1 182.8 22.1 174.2 27.2 165.6C29.6 161.5 34.1 161.3 39.1 163.9C47.6 168.4 56 173.2 64.8 176.9C72.3 180 80.4 181.5 88.7 179.5C101.5 176.4 107.7 163.9 101.1 152.5C98.2 147.5 93.6 143.1 88.8 139.8C82.7 135.7 75.6 132.8 68.8 129.8C55.9 124.2 43.6 117.7 33.1 108.2C15.3 92.1 7.30002 72.4 12.9 48.6C18.5 24.9 34.5 10.2 57.5 3.99999C91.4 -5.20001 121.9 3.89998 149.7 23.8C153.6 26.6 153.5 30.7 151.1 34.5C146.1 42.4 141 50.2 135.7 57.8C132 63.1 127.8 63.7 122.5 60.2C111.9 53.3 101.1 46.5 88.4 44.4C83 43.5 76.9 43.6 71.8 45.3C60.7 49 57.4 60.8 64.9 69.9C68.7 74.5 73.9 78.3 79.2 81.3C86.4 85.4 94.3 88.3 101.9 91.6C113.8 96.8 125.3 102.9 135.1 111.5C170.8 142.9 163.5 195.2 120.5 215.8C109.2 221.2 97.6 223.6 78.8 223.6Z" fill="white"/>
<path d="M247.2 469.4C199.2 469.4 161.4 431.4 161.4 383.4C161.4 335.3 199.6 297.3 247.7 297.3C295.5 297.3 333.8 335.9 333.6 383.9C333.6 431.6 295.3 469.4 247.2 469.4ZM247.6 430.6C273.8 430.5 295.3 409.3 295.3 383.6C295.3 357.6 273.7 336.1 247.5 336.1C221.4 336.1 199.8 357.7 199.9 383.7C199.9 409.5 221.5 430.7 247.6 430.6Z" fill="white"/>
<path d="M642.2 388.4C642.2 360.7 642.2 334 642.2 307.4C642.2 300.2 643.1 299.4 650.2 299.4C658 299.4 665.8 299.5 673.7 299.4C678.3 299.3 680.4 301.1 680.4 305.8C680.3 358.2 680.4 410.6 680.3 463.1C680.3 465.1 678.9 468.5 677.6 468.7C674.6 469.3 671.2 468.7 668.1 467.9C666.7 467.6 665.7 465.7 664.5 464.6C635.6 435.7 606.6 406.7 577.7 377.8C576.6 376.7 575.4 375.6 573.5 373.9C573.5 376.9 573.5 379 573.5 381.1C573.5 407.4 573.5 433.7 573.5 460C573.5 466.5 572.5 467.5 565.9 467.5C558.1 467.5 550.3 467.5 542.4 467.5C537 467.5 535.4 466 535.4 460.8C535.3 408.4 535.3 356 535.4 303.5C535.4 301.6 537.1 298.2 538.3 298C541.5 297.7 545.8 297.6 547.9 299.4C558.4 308.6 568.3 318.4 578.5 328.1C598.5 347.1 618.5 366.2 638.5 385.2C639.4 386.1 640.4 386.9 642.2 388.4Z" fill="white"/>
<path d="M497.5 356.7C497.5 372.2 497.6 387.7 497.5 403.1C497.3 437.3 469.5 466.7 435 469.2C398.9 471.8 366.8 447.2 361.6 412.8C361 408.9 360.8 404.8 360.8 400.9C360.7 369.9 360.8 339 360.8 308C360.8 300.2 361.7 299.3 369.3 299.3C376.8 299.3 384.3 299.3 391.8 299.3C398.7 299.3 399.6 300.2 399.6 307C399.6 338 399.6 368.9 399.6 399.9C399.6 414.9 408 426.2 421.3 429.7C439.6 434.6 457.9 421.9 458.3 403.1C458.9 373.2 458.6 343.2 458.6 313.2C458.6 310.7 458.6 308.2 458.6 305.7C458.5 301.1 460.7 299.1 465.3 299.2C473.6 299.4 481.9 299.2 490.3 299.3C496.1 299.3 497.4 300.5 497.4 306.3C497.5 323.1 497.5 339.9 497.5 356.7Z" fill="white"/>
<path d="M88.1 297.3C109.1 297.1 127.6 303.7 143.5 317.6C148.6 322 148.7 323.8 144.1 328.5C139.2 333.5 134.4 338.6 129.5 343.6C125 348.2 124.3 348.3 119.2 344.3C99 328.6 71.3 330.7 54.6 349.1C29.5 376.8 43.4 422 79.6 429.6C93.6 432.5 106.7 429.6 118.5 421.3C124.7 416.9 125.2 416.9 130.5 422.6C135.1 427.4 139.6 432.3 144.2 437.1C148.7 441.8 148.6 443.8 143.8 448.2C99.9 488.3 25.9 469 6 412.3C-13.9 355.6 27.8 297.3 88.1 297.3Z" fill="white"/>
<path d="M742.1 334.7C731 334.7 720.7 334.7 710.4 334.7C704.5 334.7 703.3 333.5 703.3 327.8C703.2 320.6 703.2 313.5 703.3 306.3C703.3 300.8 704.7 299.3 710 299.3C744.3 299.3 778.6 299.3 812.9 299.3C817.3 299.3 819.4 301.1 819.4 305.5C819.4 313.2 819.3 320.8 819.4 328.5C819.4 332.9 817.4 334.8 813 334.8C802.4 334.7 791.8 334.8 780.5 334.8C780.5 337.1 780.5 339.1 780.5 341C780.5 380.4 780.5 419.9 780.5 459.3C780.5 466.5 779.6 467.4 772.5 467.4C764.8 467.4 757.2 467.4 749.5 467.4C743.5 467.4 742.2 466.2 742.2 460.1C742.2 420.5 742.2 380.9 742.2 341.3C742.1 339.2 742.1 337.3 742.1 334.7Z" fill="white"/>
<path d="M633 187.052V26.9478C633 24.6953 635.39 23.2462 637.387 24.2878L790.899 104.34C793.049 105.461 793.049 108.539 790.899 109.66L637.387 189.712C635.39 190.754 633 189.305 633 187.052Z" fill="white"/>
</svg>
