<svg width="1024" height="1024" viewBox="0 0 1024 1024" fill="none" xmlns="http://www.w3.org/2000/svg">
<rect width="1024" height="1024" fill="#C80B1B"/>
<path d="M633.1 386.1C638 388.9 643.1 391.4 647.8 394.4C686.5 418.9 676.4 461.8 651.9 481C639.4 490.8 625.2 496.1 609.5 496.4C583.2 496.8 556.9 496.6 530.6 496.5C525.1 496.5 523.2 494.5 523.2 488.9C523.2 421.7 523.2 354.4 523.2 287.2C523.2 281.4 525.1 279.5 531.1 279.5C555.6 279.5 580 279 604.5 279.7C627.2 280.3 646.2 289.3 659.3 308.5C672.7 328.2 670.8 351 654.8 368.6C651.7 372 648.2 375.2 644.6 378.1C640.9 381 636.9 383.5 633.1 386.1ZM571.8 408.7C571.8 422.8 571.8 437.2 571.8 452.1C580.8 452.1 589.6 452.2 598.4 452.1C610.9 451.9 620.4 443.7 621.4 432.3C622.5 421.2 614.6 410.5 602.2 408.9C592.4 407.7 582.2 408.7 571.8 408.7ZM571.8 367.3C580.8 367.3 589.6 367.9 598.3 367.1C609 366.1 616.9 356.6 617.2 345.9C617.5 335.9 610.7 326.4 600.6 325.2C591.2 324.1 581.5 325 571.7 325C571.8 339.2 571.8 353.1 571.8 367.3Z" fill="white"/>
<path d="M473.7 353.1C473.7 372.4 473.7 391.7 473.7 411C473.7 456.5 441.8 492.8 396.5 498.7C350.3 504.8 307.8 474.9 298.3 429.6C297.2 424.3 296.7 418.7 296.7 413.3C296.6 371.7 296.6 330.1 296.6 288.5C296.6 281.3 298.3 279.6 305.3 279.6C316.3 279.6 327.3 279.6 338.3 279.6C345.1 279.6 346.8 281.3 346.8 288.2C346.8 329 346.8 369.7 346.8 410.5C346.8 429.1 358 444.1 374.8 448.5C400 455.1 423.4 437.1 423.5 410.9C423.6 370.8 423.5 330.7 423.5 290.6C423.5 280.4 424.3 279.7 434.7 279.7C445 279.7 455.3 279.7 465.7 279.7C471.8 279.7 473.7 281.7 473.7 287.8C473.7 309.5 473.7 331.3 473.7 353.1Z" fill="white"/>
<path d="M183.8 499.6C167.3 499.3 147.3 495.2 129.4 483.6C125.5 481.1 121.8 478.1 118.7 474.7C117.3 473.2 116.7 469.5 117.6 467.7C122.1 458.8 127.1 450.2 132.2 441.6C134.6 437.5 139.1 437.3 144.1 439.9C152.6 444.4 161 449.2 169.8 452.9C177.3 456 185.4 457.5 193.7 455.5C206.5 452.4 212.7 439.9 206.1 428.5C203.2 423.5 198.6 419.1 193.8 415.8C187.7 411.7 180.6 408.8 173.8 405.8C160.9 400.2 148.6 393.7 138.1 384.2C120.3 368.1 112.3 348.4 117.9 324.6C123.5 300.9 139.5 286.2 162.5 280C196.4 270.8 226.9 279.9 254.7 299.8C258.6 302.6 258.5 306.7 256.1 310.5C251.1 318.4 246 326.2 240.7 333.8C237 339.1 232.8 339.7 227.5 336.2C216.9 329.3 206.1 322.5 193.4 320.4C188 319.5 181.9 319.6 176.8 321.3C165.7 325 162.4 336.8 169.9 345.9C173.7 350.5 178.9 354.3 184.2 357.3C191.4 361.4 199.3 364.3 206.9 367.6C218.8 372.8 230.3 378.9 240.1 387.5C275.8 418.9 268.5 471.2 225.5 491.8C214.2 497.2 202.6 499.6 183.8 499.6Z" fill="white"/>
<path d="M352.2 745.4C304.2 745.4 266.4 707.4 266.4 659.4C266.4 611.3 304.6 573.3 352.7 573.3C400.5 573.3 438.8 611.9 438.6 659.9C438.6 707.6 400.3 745.4 352.2 745.4ZM352.6 706.6C378.8 706.5 400.3 685.3 400.3 659.6C400.3 633.6 378.7 612.1 352.5 612.1C326.4 612.1 304.8 633.7 304.9 659.7C304.9 685.5 326.5 706.7 352.6 706.6Z" fill="white"/>
<path d="M747.2 664.4C747.2 636.7 747.2 610 747.2 583.4C747.2 576.2 748.1 575.4 755.2 575.4C763 575.4 770.8 575.5 778.7 575.4C783.3 575.3 785.4 577.1 785.4 581.8C785.3 634.2 785.4 686.6 785.3 739.1C785.3 741.1 783.9 744.5 782.6 744.7C779.6 745.3 776.2 744.7 773.1 743.9C771.7 743.6 770.7 741.7 769.5 740.6C740.6 711.7 711.6 682.7 682.7 653.8C681.6 652.7 680.4 651.6 678.5 649.9C678.5 652.9 678.5 655 678.5 657.1C678.5 683.4 678.5 709.7 678.5 736C678.5 742.5 677.5 743.5 670.9 743.5C663.1 743.5 655.3 743.5 647.4 743.5C642 743.5 640.4 742 640.4 736.8C640.3 684.4 640.3 632 640.4 579.5C640.4 577.6 642.1 574.2 643.3 574C646.5 573.7 650.8 573.6 652.9 575.4C663.4 584.6 673.3 594.4 683.5 604.1C703.5 623.1 723.5 642.2 743.5 661.2C744.4 662.1 745.4 662.9 747.2 664.4Z" fill="white"/>
<path d="M602.5 632.7C602.5 648.2 602.6 663.7 602.5 679.1C602.3 713.3 574.5 742.7 540 745.2C503.9 747.8 471.8 723.2 466.6 688.8C466 684.9 465.8 680.8 465.8 676.9C465.7 645.9 465.8 615 465.8 584C465.8 576.2 466.7 575.3 474.3 575.3C481.8 575.3 489.3 575.3 496.8 575.3C503.7 575.3 504.6 576.2 504.6 583C504.6 614 504.6 644.9 504.6 675.9C504.6 690.9 513 702.2 526.3 705.7C544.6 710.6 562.9 697.9 563.3 679.1C563.9 649.2 563.6 619.2 563.6 589.2C563.6 586.7 563.6 584.2 563.6 581.7C563.5 577.1 565.7 575.1 570.3 575.2C578.6 575.4 586.9 575.2 595.3 575.3C601.1 575.3 602.4 576.5 602.4 582.3C602.5 599.1 602.5 615.9 602.5 632.7Z" fill="white"/>
<path d="M193.1 573.3C214.1 573.1 232.6 579.7 248.5 593.6C253.6 598 253.7 599.8 249.1 604.5C244.2 609.5 239.4 614.6 234.5 619.6C230 624.2 229.3 624.3 224.2 620.3C204 604.6 176.3 606.7 159.6 625.1C134.5 652.8 148.4 698 184.6 705.6C198.6 708.5 211.7 705.6 223.5 697.3C229.7 692.9 230.2 692.9 235.5 698.6C240.1 703.4 244.6 708.3 249.2 713.1C253.7 717.8 253.6 719.8 248.8 724.2C204.9 764.3 130.9 745 111 688.3C91.1 631.6 132.8 573.3 193.1 573.3Z" fill="white"/>
<path d="M847.1 610.7C836 610.7 825.7 610.7 815.4 610.7C809.5 610.7 808.3 609.5 808.3 603.8C808.2 596.6 808.2 589.5 808.3 582.3C808.3 576.8 809.7 575.3 815 575.3C849.3 575.3 883.6 575.3 917.9 575.3C922.3 575.3 924.4 577.1 924.4 581.5C924.4 589.2 924.3 596.8 924.4 604.5C924.4 608.9 922.4 610.8 918 610.8C907.4 610.7 896.8 610.8 885.5 610.8C885.5 613.1 885.5 615.1 885.5 617C885.5 656.4 885.5 695.9 885.5 735.3C885.5 742.5 884.6 743.4 877.5 743.4C869.8 743.4 862.2 743.4 854.5 743.4C848.5 743.4 847.2 742.2 847.2 736.1C847.2 696.5 847.2 656.9 847.2 617.3C847.1 615.2 847.1 613.3 847.1 610.7Z" fill="white"/>
<path d="M738 463.052V302.948C738 300.695 740.39 299.246 742.387 300.288L895.899 380.34C898.049 381.461 898.049 384.539 895.899 385.66L742.387 465.712C740.39 466.754 738 465.305 738 463.052Z" fill="#8C0813"/>
</svg>
