<svg version="1" xmlns="http://www.w3.org/2000/svg" width="682.667" height="682.667" viewBox="0 0 512.000000 512.000000"><path d="M96.1 252v175H142l.2-153.1.3-153.1 15.3 40.8c8.4 22.5 16.6 44.3 18.2 48.4 3.6 9.3 23.5 62.2 26.7 71 3.2 8.8 3.6 9.9 14.2 38 5.1 13.5 10.6 28.1 12.3 32.6l3 8.1h23.9c13.1-.1 23.9-.1 23.9-.1 0-.4 21.6-58.3 29-77.6 1.6-4.1 5.6-14.7 8.9-23.4 3.4-8.8 6.1-16.3 6.1-16.8 0-.4.9-2.7 1.9-5.1 1.1-2.3 2.8-6.7 3.9-9.7 2.9-8.2 18.3-49.2 19.3-51.5.5-1.1 2.2-5.6 3.8-10 3.9-10.6 8-21.7 13-34.5l4-10.5.1 153.2V427h46.5l-.2-174c0-95.7-.2-174.5-.2-175-.1-.6-12.6-1-35.3-1h-35.3l-12.4 33.3c-6.8 18.2-13.6 36.3-15.1 40.2-1.5 3.8-4.1 10.6-5.8 15-3.9 10.4-42.7 113.5-50 133.2-3.1 8.4-5.9 15.3-6.2 15.3-.3 0-9.9-25.1-21.3-55.8-11.5-30.6-22-58.6-23.4-62.2-2.6-6.7-3.6-9.4-7.3-19.5-1.2-3.3-3.3-8.7-4.6-12-1.3-3.3-9.2-24.3-17.5-46.8L166.7 77H96.1v175z"/></svg>